Coordinates
version=1
nRows=4
nColumns=124
inDegrees=yes

Units are S.I. units (second, meters, Newtons, ...)
If the header above contains a line with 'inDegrees', this indicates whether rotational values are in degrees (yes) or radians (no).

endheader 
time	pelvis_tilt	pelvis_list	pelvis_rotation	pelvis_tx	pelvis_ty	pelvis_tz	hip_flexion_l	hip_adduction_l	hip_rotation_l	hip_flexion_r	hip_adduction_r	hip_rotation_r	knee_angle_l	knee_angle_r	ankle_angle_l	ankle_angle_r	subtalar_angle_l	subtalar_angle_r	mtp_angle_l	mtp_angle_r	lumbar_extension	lumbar_bending	lumbar_rotation	arm_flex_l	arm_add_l	arm_rot_l	arm_flex_r	arm_add_r	arm_rot_r	elbow_flex_l	elbow_flex_r	glut_med1_l/activation	glut_med2_l/activation	glut_med3_l/activation	glut_min1_l/activation	glut_min2_l/activation	glut_min3_l/activation	semimem_l/activation	semiten_l/activation	bifemlh_l/activation	bifemsh_l/activation	sar_l/activation	add_long_l/activation	add_brev_l/activation	add_mag1_l/activation	add_mag2_l/activation	add_mag3_l/activation	tfl_l/activation	pect_l/activation	grac_l/activation	glut_max1_l/activation	glut_max2_l/activation	glut_max3_l/activation	iliacus_l/activation	psoas_l/activation	quad_fem_l/activation	gem_l/activation	peri_l/activation	rect_fem_l/activation	vas_med_l/activation	vas_int_l/activation	vas_lat_l/activation	med_gas_l/activation	lat_gas_l/activation	soleus_l/activation	tib_post_l/activation	flex_dig_l/activation	flex_hal_l/activation	tib_ant_l/activation	per_brev_l/activation	per_long_l/activation	per_tert_l/activation	ext_dig_l/activation	ext_hal_l/activation	ercspn_l/activation	intobl_l/activation	extobl_l/activation	glut_med1_r/activation	glut_med2_r/activation	glut_med3_r/activation	glut_min1_r/activation	glut_min2_r/activation	glut_min3_r/activation	semimem_r/activation	semiten_r/activation	bifemlh_r/activation	bifemsh_r/activation	sar_r/activation	add_long_r/activation	add_brev_r/activation	add_mag1_r/activation	add_mag2_r/activation	add_mag3_r/activation	tfl_r/activation	pect_r/activation	grac_r/activation	glut_max1_r/activation	glut_max2_r/activation	glut_max3_r/activation	iliacus_r/activation	psoas_r/activation	quad_fem_r/activation	gem_r/activation	peri_r/activation	rect_fem_r/activation	vas_med_r/activation	vas_int_r/activation	vas_lat_r/activation	med_gas_r/activation	lat_gas_r/activation	soleus_r/activation	tib_post_r/activation	flex_dig_r/activation	flex_hal_r/activation	tib_ant_r/activation	per_brev_r/activation	per_long_r/activation	per_tert_r/activation	ext_dig_r/activation	ext_hal_r/activation	ercspn_r/activation	intobl_r/activation	extobl_r/activation	
          0.56213708	         -8.26722355	          4.96496736	         -7.90172915	          0.74764231	          0.89063519	          0.00654661	         35.22268688	          3.79959242	         -3.87836764	        -12.10780121	         -3.72352549	          6.45300703	        -12.00013535	        -12.54235003	         12.84535319	          4.21315738	         -7.43458587	          0.97196188	          0.27089595	         35.72186310	          2.98087559	         -1.73634580	          1.86967519	         -8.71552399	        -13.59563866	         14.06341942	         -0.65227589	        -13.50110646	         18.24779413	          0.73700615	         89.74476845	          0.21268784	          0.05000054	          0.61872368	          0.05000194	          0.05000129	          0.47754886	          0.22047272	          0.05645512	          0.09214921	          0.09450322	          0.06873748	          0.06874566	          0.17856935	          0.14385129	          0.11424842	          0.15946107	          0.05000220	          0.06874067	          0.08853678	          0.05000065	          0.15915586	          0.09991687	          0.06873795	          0.06873719	          0.12146791	          0.09454034	          0.37840437	          0.05000061	          0.05000147	          0.05000152	          0.05000114	          0.05189287	          0.06873766	          0.05690448	          0.06873703	          0.05000378	          0.05000505	          0.54728941	          0.33494649	          0.20181242	          0.22402685	          0.75751820	          0.51957072	          0.12241149	          0.08447704	          0.06873806	          0.31923270	          0.09449666	          0.08268202	          0.13546113	          0.12772762	          0.09450630	          0.05000167	          0.05000138	          0.05000195	          0.07718348	          0.06874493	          0.21222977	          0.14625274	          0.06874577	          0.09138415	          0.16519946	          0.36946440	          0.06875473	          0.05000482	          0.05001433	          0.05000994	          0.05000818	          0.23383023	          0.51737930	          0.06319552	          0.05000833	          0.08499075	          0.05769497	          0.05005767	          0.05444059	          0.05678491	          0.24051945	          0.35216581	          0.24856472	          0.43216740	          0.46565403	          0.43964100	          0.05000027	          0.05000038	          0.05000026	          0.05000058	          0.05000016	          0.05000111	          0.06904524	          0.05000010	          0.05000015	
          0.58462256	         -8.23046214	          4.96779478	         -8.46781180	          0.78363617	          0.88762090	          0.00592400	         34.17391897	          4.10754995	         -3.24136840	        -11.11177273	         -4.00341225	          5.34420530	        -14.11787117	        -18.38044067	         11.16784590	          2.83549551	         -8.14961518	          1.93023485	          0.25541601	         36.82863930	          3.26033352	         -1.99609258	          1.92036177	        -10.85887114	        -13.64897649	         12.76434940	         -1.53939356	        -13.53300093	         18.76633224	          0.75356097	         94.03969160	          0.32752766	          0.40982911	          0.55762660	          0.15402627	          0.32258800	          0.34737074	          0.16037207	          0.08685268	          0.06702984	          0.06874205	          0.05000089	          0.05000592	          0.12989173	          0.14578309	          0.19796147	          0.18498393	          0.05000144	          0.05000651	          0.08854012	          0.30412215	          0.26504967	          0.21521242	          0.05000025	          0.05000022	          0.29658865	          0.06877202	          0.27525222	          0.05000026	          0.10634245	          0.12502046	          0.13524733	          0.05000005	          0.05000016	          0.05000001	          0.05000004	          0.05000036	          0.05000033	          0.79297692	          0.42981821	          0.23085138	          0.68948849	          0.88351952	          0.37794346	          0.13904461	          0.07879668	          0.05000025	          0.23221043	          0.06873709	          0.06014303	          0.29514417	          0.09290993	          0.06874416	          0.06878617	          0.05000106	          0.05000070	          0.05614341	          0.05000624	          0.30540752	          0.34774584	          0.05000757	          0.10836546	          0.12016707	          0.46936386	          0.05002298	          0.05000222	          0.05000509	          0.05000311	          0.05000141	          0.17009188	          0.45967460	          0.05000031	          0.05000167	          0.06182251	          0.05000195	          0.06874698	          0.06876277	          0.06874689	          0.17495404	          0.25616577	          0.18080641	          0.33971729	          0.33871831	          0.31979676	          0.05000019	          0.05000074	          0.05000076	          0.05000080	          0.11540522	          0.05000114	          0.13000344	          0.05000006	          0.05000012	
          0.60710804	         -8.18115151	          4.87298924	         -8.87071482	          0.81869769	          0.88645592	          0.00508120	         33.21970604	          4.44448868	         -2.59568742	         -9.55723782	         -4.26904452	          4.33978909	        -16.40286367	        -24.93774733	          9.92233656	          1.22930307	         -8.94958437	          2.94990488	          0.19120575	         34.81455064	          3.48332690	         -2.20079256	          1.93109933	        -12.54998636	        -13.63530905	         12.13270793	         -2.32971093	        -13.52777130	         19.11595552	          0.89869239	         96.92924316	          0.41294688	          0.47664857	          0.61144427	          0.18730663	          0.23466049	          0.36146746	          0.11665490	          0.08316819	          0.06844614	          0.05000420	          0.05000149	          0.05000272	          0.09448502	          0.19210230	          0.23868636	          0.20955992	          0.05000145	          0.05001311	          0.10243851	          0.35646787	          0.30322950	          0.25585315	          0.05000043	          0.05000045	          0.21574054	          0.05002790	          0.32424397	          0.05000028	          0.17990082	          0.23928710	          0.24356817	          0.05000024	          0.05000068	          0.05000010	          0.11553836	          0.05001838	          0.05000695	          0.90339219	          0.31265028	          0.16792158	          0.50153519	          0.77797936	          0.41971986	          0.13877000	          0.05731833	          0.05000014	          0.16891021	          0.05000079	          0.05000023	          0.21468894	          0.06758421	          0.05000506	          0.05003885	          0.05000073	          0.05000107	          0.05000022	          0.05000176	          0.30571367	          0.42174255	          0.29298242	          0.09449487	          0.08741040	          0.51769288	          0.05002786	          0.05000195	          0.05000691	          0.05000393	          0.05000190	          0.12372547	          0.36816060	          0.05000047	          0.05000178	          0.05000032	          0.05000117	          0.05001222	          0.05002108	          0.05000965	          0.12726172	          0.18633527	          0.13151873	          0.24711075	          0.24638438	          0.23262082	          0.07077742	          0.05000068	          0.05000074	          0.05000070	          0.29665012	          0.05000281	          0.14934688	          0.05000005	          0.05000012	
          0.62959352	         -8.12833088	          4.68862215	         -9.09831922	          0.85244178	          0.88752648	          0.00412669	         32.11815773	          4.80219293	         -1.89164437	         -7.41112144	         -4.50686865	          3.49253543	        -18.43983954	        -31.99048364	          9.50867474	         -0.66690838	         -9.77716897	          4.02069209	          0.14598374	         29.54321152	          3.64937053	         -2.35489942	          1.89436355	        -13.65613197	        -13.57434731	         12.14316736	         -2.99171809	        -13.49454870	         19.31339286	          1.04355538	         98.36470953	          0.45786407	          0.49881151	          0.59669803	          0.18146246	          0.24385143	          0.31403202	          0.08635730	          0.09366305	          0.07558325	          0.05000098	          0.05000104	          0.05000180	          0.06873033	          0.21706162	          0.25928654	          0.21642170	          0.05000114	          0.05000894	          0.09559805	          0.37724546	          0.31166796	          0.26125977	          0.05000027	          0.05000029	          0.15693192	          0.05000780	          0.23585903	          0.05000023	          0.23352411	          0.29945614	          0.28717038	          0.05000030	          0.05000083	          0.05000021	          0.13070770	          0.05001207	          0.05000582	          0.87215443	          0.22742238	          0.12214652	          0.36481778	          0.71918156	          0.34473470	          0.10094149	          0.05000008	          0.05000013	          0.12286549	          0.05000091	          0.05000086	          0.15616536	          0.05000247	          0.05000248	          0.06976105	          0.07345531	          0.07563142	          0.05000097	          0.07046924	          0.28356402	          0.38669146	          0.21311792	          0.06873866	          0.06358283	          0.57675487	          0.31599637	          0.13411826	          0.05000711	          0.05000390	          0.05000171	          0.14620951	          0.29901248	          0.22698534	          0.05002819	          0.06873494	          0.05000010	          0.05000008	          0.05000007	          0.05000005	          0.09257031	          0.13554054	          0.09566684	          0.17974859	          0.17922045	          0.16920879	          0.25611970	          0.23690207	          0.12024281	          0.61984811	          0.50983581	          0.31140315	          0.17250362	          0.05000083	          0.05000031	
